<svg xmlns="http://www.w3.org/2000/svg" viewBox="0 0 33.26 33.26"><defs><style>.cls-1{fill:#6eca97;}.cls-2{fill:#2e1a46;fill-rule:evenodd;}</style></defs><title>chat-icon_1</title><g id="Layer_2" data-name="Layer 2"><g id="HomePage"><circle class="cls-1" cx="16.63" cy="16.63" r="16.63"/><path class="cls-2" d="M13.41,14.76v-.27c0-1.11,0-2.23,0-3.34a2,2,0,0,1,1.58-2,2.56,2.56,0,0,1,.55,0h9.58a2,2,0,0,1,2.09,1.66,2.53,2.53,0,0,1,0,.48v3.56a2,2,0,0,1-1.91,2.17l-.12,0c.2.33.4.64.59,1s.17.44,0,.61-.33.2-.61.08l-2.55-1.05-.24-.09v3a2,2,0,0,1-2.13,2.14H12.54a1.26,1.26,0,0,0-.43.08l-3.88,1.6a.5.5,0,0,1-.54,0,.43.43,0,0,1-.06-.6l.64-1-.55-.1a2,2,0,0,1-1.48-1.86c0-1.34,0-2.69,0-4a1.94,1.94,0,0,1,1.82-1.9c.8,0,1.6,0,2.4,0h2.95ZM9.08,23l.13,0c.89-.37,1.78-.74,2.67-1.09a1.45,1.45,0,0,1,.54-.11h7.93a1.13,1.13,0,0,0,1.2-1.18V16.81a1.14,1.14,0,0,0-1.16-1.18H8.27a1.11,1.11,0,0,0-1.16,1.12q0,2,0,3.9a1.12,1.12,0,0,0,1.16,1.11H9a.44.44,0,0,1,.4.69C9.33,22.63,9.22,22.8,9.08,23ZM24.4,17.33c-.15-.22-.26-.39-.36-.56a.44.44,0,0,1,.4-.7h.71a1.14,1.14,0,0,0,1.22-1.2V11.16a1.14,1.14,0,0,0-1.23-1.22H15.52a1.14,1.14,0,0,0-1.23,1.24v3.35a1.93,1.93,0,0,0,0,.23h6a2,2,0,0,1,2.09,1.63.27.27,0,0,0,.14.17Z"/><path class="cls-2" d="M11,9.3A1.53,1.53,0,1,1,9.52,7.75,1.53,1.53,0,0,1,11,9.3Zm-2.18,0a.65.65,0,1,0,1.3,0,.64.64,0,0,0-.63-.66A.66.66,0,0,0,8.86,9.27Z"/><path class="cls-2" d="M15.86,24.82a1.3,1.3,0,0,1-1.31,1.32,1.32,1.32,0,1,1,1.31-1.32Zm-.88,0a.44.44,0,0,0-.43-.45.44.44,0,1,0,.43.45Z"/><path class="cls-2" d="M11,12.56a.44.44,0,0,1-.44-.44.44.44,0,0,1,.45-.42.43.43,0,1,1,0,.86Z"/><path class="cls-2" d="M12.79,7.32a.43.43,0,0,1-.44.43.42.42,0,0,1-.42-.44.43.43,0,1,1,.86,0Z"/><path class="cls-2" d="M8,13.45a.43.43,0,0,1-.44.43.44.44,0,0,1-.43-.44A.47.47,0,0,1,7.55,13,.44.44,0,0,1,8,13.45Z"/><path class="cls-2" d="M19.37,7.75a.44.44,0,1,1,0-.87.44.44,0,0,1,.45.43A.44.44,0,0,1,19.37,7.75Z"/><path class="cls-2" d="M11.05,25.27a.45.45,0,0,1-.44-.43.44.44,0,1,1,.87,0A.45.45,0,0,1,11.05,25.27Z"/><path class="cls-2" d="M18.05,23.51a.44.44,0,0,1-.44.44.44.44,0,0,1,0-.87A.43.43,0,0,1,18.05,23.51Z"/><path class="cls-2" d="M12.58,20h3.78a.44.44,0,0,1,.38.42.45.45,0,0,1-.38.44H8.78a.44.44,0,0,1,0-.86h3.8Z"/><path class="cls-2" d="M16.71,19.14h-3a.45.45,0,0,1-.46-.62.49.49,0,0,1,.48-.27c.49,0,1,0,1.46,0h4.56a.45.45,0,0,1,.47.43.46.46,0,0,1-.48.45Z"/><path class="cls-2" d="M11.48,16.51h2.6a.43.43,0,0,1,.44.3.38.38,0,0,1-.15.47.76.76,0,0,1-.39.1H8.84a.44.44,0,0,1,0-.87h2.61Z"/><path class="cls-2" d="M10.6,19.14H8.94c-.33,0-.52-.18-.52-.45s.2-.43.51-.43c1.12,0,2.24,0,3.35,0,.32,0,.51.17.51.44s-.19.44-.52.44Z"/><path class="cls-2" d="M16.74,17.38A.44.44,0,0,1,16.3,17a.43.43,0,0,1,.43-.44.44.44,0,0,1,.44.43A.43.43,0,0,1,16.74,17.38Z"/><path class="cls-2" d="M15,17a.44.44,0,0,1,.43-.45.43.43,0,0,1,.43.43.44.44,0,0,1-.42.45A.44.44,0,0,1,15,17Z"/><path class="cls-2" d="M17.62,20a.43.43,0,1,1-.44.43A.43.43,0,0,1,17.62,20Z"/><path class="cls-2" d="M19.8,13h3.4a.51.51,0,0,1,.47.21.43.43,0,0,1-.21.64,1.24,1.24,0,0,1-.33,0H16.35c-.3,0-.5-.2-.49-.46a.46.46,0,0,1,.5-.43Z"/><path class="cls-2" d="M17.85,11.26h1.44c.31,0,.51.17.51.43s-.2.43-.51.44H16.36a.44.44,0,0,1-.49-.36.41.41,0,0,1,.25-.47.9.9,0,0,1,.28,0Z"/><path class="cls-2" d="M24.62,13a.43.43,0,0,1,.43.44.44.44,0,0,1-.44.43.44.44,0,1,1,0-.87Z"/><path class="cls-2" d="M26.07,22a1.21,1.21,0,1,1-1.21-1.21A1.21,1.21,0,0,1,26.07,22Zm-.51,0a.7.7,0,1,0-.7.69A.7.7,0,0,0,25.56,22Z"/></g></g></svg>