<svg xmlns="http://www.w3.org/2000/svg" viewBox="0 0 82.91 113.72"><defs><style>.cls-1,.cls-3{fill:#2e1a46;}.cls-1{stroke:#2e1a46;stroke-miterlimit:10;stroke-width:0.64px;}.cls-2{fill:#6cca98;}</style></defs><title>Asset 12@300x</title><g id="Layer_2" data-name="Layer 2"><g id="Footer"><path class="cls-1" d="M.32,91.32H6.47v.94H1.3v4.06H4.49l-.38.93H1.3v5h-1Z"/><path class="cls-1" d="M8.36,102.24V91.32H9.3v10.92Z"/><path class="cls-1" d="M15.86,102.24v-.94a2.08,2.08,0,0,1-.81.69,2.19,2.19,0,0,1-1,.25h-.23a2.2,2.2,0,0,1-.88-.18,2.21,2.21,0,0,1-1.24-1.23,2.22,2.22,0,0,1-.17-.88V94.29h.93V100a1.4,1.4,0,0,0,.11.53,1.42,1.42,0,0,0,.29.43,1.3,1.3,0,0,0,.43.29,1.4,1.4,0,0,0,.53.11h.62a1.4,1.4,0,0,0,.53-.11,1.36,1.36,0,0,0,.72-.72,1.4,1.4,0,0,0,.11-.53V94.29h.93v7.95Z"/><path class="cls-1" d="M22.6,102.24l-1.66-3-1.67,3h-1l2.19-3.9-2.34-4h1l1.82,3.15,1.75-3.12h1l-2.27,4,2.18,3.9Z"/><path class="cls-1" d="M31,95.36a2.6,2.6,0,0,1-.2,1,2.78,2.78,0,0,1-.58.86,2.71,2.71,0,0,1-.87.58,2.59,2.59,0,0,1-1,.2H25.87v4.2h-1V91.32h3.46a2.78,2.78,0,0,1,1,.2,2.88,2.88,0,0,1,.87.58,2.71,2.71,0,0,1,.58.87,2.64,2.64,0,0,1,.2,1Zm-1-1.35a1.72,1.72,0,0,0-.13-.68,1.79,1.79,0,0,0-.38-.56,1.64,1.64,0,0,0-.56-.38,1.75,1.75,0,0,0-.68-.13H25.87v4.85H28.3a1.8,1.8,0,0,0,1.24-.51,1.79,1.79,0,0,0,.38-.56,1.72,1.72,0,0,0,.13-.68Z"/><path class="cls-1" d="M34.91,95.33a1.4,1.4,0,0,0-.53.11,1.36,1.36,0,0,0-.72.72,1.4,1.4,0,0,0-.11.53v5.55h-.93V94.29h.82v.94a2.38,2.38,0,0,1,.82-.69,2.22,2.22,0,0,1,1-.25h.55v1Z"/><path class="cls-1" d="M42.31,100.1a2.23,2.23,0,0,1-.18.88,2.35,2.35,0,0,1-1.24,1.24,2.38,2.38,0,0,1-.88.17h-.62a2.38,2.38,0,0,1-.88-.17A2.35,2.35,0,0,1,37.27,101a2.22,2.22,0,0,1-.17-.88V96.58a2.22,2.22,0,0,1,.17-.88,2.2,2.2,0,0,1,.5-.74,2.17,2.17,0,0,1,.74-.49,2.2,2.2,0,0,1,.88-.18H40a2.2,2.2,0,0,1,.88.18,2.17,2.17,0,0,1,.74.49,2.2,2.2,0,0,1,.5.74,2.23,2.23,0,0,1,.18.88Zm-.94-3.57a1.4,1.4,0,0,0-.11-.53,1.36,1.36,0,0,0-.72-.72,1.36,1.36,0,0,0-.53-.11h-.62a1.4,1.4,0,0,0-.53.11,1.3,1.3,0,0,0-.43.29,1.42,1.42,0,0,0-.29.43,1.4,1.4,0,0,0-.11.53v3.62a1.36,1.36,0,0,0,.11.53,1.3,1.3,0,0,0,.29.43,1.17,1.17,0,0,0,.43.29,1.4,1.4,0,0,0,.53.11H40a1.36,1.36,0,0,0,.53-.11,1.26,1.26,0,0,0,.43-.29,1.3,1.3,0,0,0,.29-.43,1.36,1.36,0,0,0,.11-.53Z"/><path class="cls-1" d="M53.62,99.56a2.78,2.78,0,0,1-.2,1,2.71,2.71,0,0,1-.58.87A2.68,2.68,0,0,1,52,102a2.65,2.65,0,0,1-1,.21H47.48V91.32h3.45a2.83,2.83,0,0,1,1,.2,2.88,2.88,0,0,1,.87.58,2.71,2.71,0,0,1,.58.87,2.83,2.83,0,0,1,.2,1Zm-1-5.55a1.91,1.91,0,0,0-.13-.68,1.79,1.79,0,0,0-.38-.56,1.59,1.59,0,0,0-.57-.38,1.67,1.67,0,0,0-.67-.13H48.46v9h2.43a1.67,1.67,0,0,0,.67-.13,1.73,1.73,0,0,0,.57-.38,1.64,1.64,0,0,0,.38-.55,1.91,1.91,0,0,0,.13-.68Z"/><path class="cls-1" d="M55.13,92.57V91.32h1.09v1.25Zm.08,9.67V94.29h.93v7.95Z"/><path class="cls-1" d="M63.61,103.22a2.29,2.29,0,0,1-.17.87,2,2,0,0,1-.5.68,2.38,2.38,0,0,1-.74.44,2.58,2.58,0,0,1-.88.15h-.39a2.62,2.62,0,0,1-.88-.15,2.38,2.38,0,0,1-.74-.44,2.1,2.1,0,0,1-.5-.68,2.29,2.29,0,0,1-.17-.87v0a2,2,0,0,1,.62-1.5,1.67,1.67,0,0,1-.58-.6,1.71,1.71,0,0,1-.21-.83,1.66,1.66,0,0,1,.17-.76,1.7,1.7,0,0,1,.48-.58,2.28,2.28,0,0,1-.58-.79,2.31,2.31,0,0,1-.21-1v-.59a2.42,2.42,0,0,1,.17-.88A2.2,2.2,0,0,1,59,95a2.17,2.17,0,0,1,.74-.49,2.2,2.2,0,0,1,.88-.18H61a2.25,2.25,0,0,1,1,.25,2.48,2.48,0,0,1,.82.69l0-.94h.85v2.88a2.23,2.23,0,0,1-.18.88,2.17,2.17,0,0,1-.49.74,2.36,2.36,0,0,1-.74.5,2.46,2.46,0,0,1-.88.17H60a.74.74,0,0,0-.55.24.64.64,0,0,0-.18.25.81.81,0,0,0-.06.31.73.73,0,0,0,.24.56.72.72,0,0,0,.55.23h1.28a2.59,2.59,0,0,1,.88.16,2.2,2.2,0,0,1,.74.44,1.8,1.8,0,0,1,.5.68,2.24,2.24,0,0,1,.17.86Zm-.85-6.69a1.4,1.4,0,0,0-.11-.53,1.26,1.26,0,0,0-.29-.43,1.09,1.09,0,0,0-.44-.29,1.35,1.35,0,0,0-.52-.11h-.78a1.4,1.4,0,0,0-.53.11,1.36,1.36,0,0,0-.72.72,1.4,1.4,0,0,0-.11.53v.69a1.4,1.4,0,0,0,.11.53,1.36,1.36,0,0,0,.72.72,1.4,1.4,0,0,0,.53.11h.78a1.55,1.55,0,0,0,.52-.1,1.37,1.37,0,0,0,.44-.3,1.26,1.26,0,0,0,.29-.43,1.4,1.4,0,0,0,.11-.53Zm0,6.62a1.11,1.11,0,0,0-.39-.89,1.37,1.37,0,0,0-.43-.23,1.6,1.6,0,0,0-.53-.09h-.48a1.51,1.51,0,0,0-.53.09,1.18,1.18,0,0,0-.43.23,1.09,1.09,0,0,0-.4.89v.12a1.08,1.08,0,0,0,.4.88,1.37,1.37,0,0,0,.43.24,1.78,1.78,0,0,0,.53.08h.48a1.89,1.89,0,0,0,.53-.08,1.64,1.64,0,0,0,.43-.24,1.1,1.1,0,0,0,.39-.88Z"/><path class="cls-1" d="M65.65,92.57V91.32h1.09v1.25Zm.07,9.67V94.29h.94v7.95Z"/><path class="cls-1" d="M71.69,102.24a2,2,0,0,1-.8-.16,2.12,2.12,0,0,1-.66-.44,2,2,0,0,1-.45-.67,1.92,1.92,0,0,1-.16-.79v-5h-1.4v-.89h1.4V92.57h.94v1.72h2v.89h-2v5a1.09,1.09,0,0,0,.15.56,1.12,1.12,0,0,0,.4.41,1.17,1.17,0,0,0,.58.15h.85v.89Z"/><path class="cls-1" d="M74.34,96.51a2.16,2.16,0,0,1,.17-.83A2.22,2.22,0,0,1,75,95a2.17,2.17,0,0,1,.74-.49,2.2,2.2,0,0,1,.88-.18h.55A2.34,2.34,0,0,1,78.8,95a2.17,2.17,0,0,1,.49.74,2.23,2.23,0,0,1,.18.88v5.66h-.83v-.93a2.25,2.25,0,0,1-.82.68,2.18,2.18,0,0,1-1,.25h-.24a2.23,2.23,0,0,1-.88-.18,2.17,2.17,0,0,1-.74-.49,2.36,2.36,0,0,1-.5-.74,2.42,2.42,0,0,1-.17-.88v-.08a2.42,2.42,0,0,1,.17-.88,2.35,2.35,0,0,1,1.24-1.24,2.42,2.42,0,0,1,.88-.17h2v-1a1.39,1.39,0,0,0-.1-.53,1.62,1.62,0,0,0-.29-.43,1.46,1.46,0,0,0-.44-.29,1.35,1.35,0,0,0-.52-.11h-.55a1.36,1.36,0,0,0-.53.11,1.3,1.3,0,0,0-.43.29,1.42,1.42,0,0,0-.29.43,1.5,1.5,0,0,0-.11.51Zm4.19,1.8h-2a1.31,1.31,0,0,0-.52.11,1.34,1.34,0,0,0-.83,1.25V100a1.39,1.39,0,0,0,.1.53,1.42,1.42,0,0,0,.29.43,1.35,1.35,0,0,0,.44.29,1.31,1.31,0,0,0,.52.11h.63a1.35,1.35,0,0,0,.52-.11,1.46,1.46,0,0,0,.44-.29,1.62,1.62,0,0,0,.29-.43,1.39,1.39,0,0,0,.1-.53Z"/><path class="cls-1" d="M81.65,102.24V91.32h.94v10.92Z"/><polygon class="cls-2" points="57.24 78.88 77.9 6.59 36.59 58.22 57.24 78.88"/><polygon class="cls-2" points="77.9 6.59 5.61 42.73 26.27 53.06 77.9 6.59"/><path class="cls-3" d="M71.57,52.8a1.22,1.22,0,0,0,.91,1.55h.25c.52,0,1.17-.39,1.17-.9L79.06,32.8a1.22,1.22,0,0,0-.91-1.55,1.21,1.21,0,0,0-1.54.9Z"/><path class="cls-3" d="M46.27,5.43a1.36,1.36,0,0,0-.51,1.68,1.22,1.22,0,0,0,1.16.77.71.71,0,0,0,.64-.25L57.89,2.46A1.35,1.35,0,0,0,58.41.79,1.36,1.36,0,0,0,56.73.27Z"/><path class="cls-3" d="M22,54a1.28,1.28,0,0,0-1.81-1.8L15,57.32a1.25,1.25,0,0,0,0,1.81,1.38,1.38,0,0,0,.9.39,1.36,1.36,0,0,0,.9-.39Z"/><path class="cls-3" d="M22,62.48a1.26,1.26,0,0,0-1.81,0L15,67.65a1.23,1.23,0,0,0,0,1.8,1.38,1.38,0,0,0,.9.39,1.36,1.36,0,0,0,.9-.39L22,64.29A1.25,1.25,0,0,0,22,62.48Z"/><path class="cls-3" d="M4.71,57.32a1.26,1.26,0,0,0,0,1.81,1.4,1.4,0,0,0,.9.39,1.4,1.4,0,0,0,.91-.39L16.84,48.8A1.28,1.28,0,1,0,15,47Z"/><path class="cls-3" d="M79.1,2.32v0A2,2,0,0,0,78.71.14c-.38-.27-1-.14-1.62.27l-72,36c-.52.26-.78.52-.78,1a1.49,1.49,0,0,0,.78,1.17L25.23,48.67l5,25.17a.48.48,0,0,0,.13.39.13.13,0,0,1,.13.13l.26.26a.12.12,0,0,0,.12.13c0,.12.13.12.13.12H32c.12,0,.12-.12.25-.12h.13c.13,0,.13-.13.26-.26L42,60.29,56.34,74.62a1.2,1.2,0,0,0,.9.38h.39a1.51,1.51,0,0,0,.9-.9L79.05,2.47l0-.07ZM8.45,37.57,69.89,6.85,26,46.35Zm23.11,30.2L27.68,48.29,67.05,12.92,35.43,52.29v.13c0,.12-.13.25-.13.38Zm2.84-.9,2.84-11.23L40,58.48Zm22.2,4.39L38.4,52.93,74.93,7.24Z"/><path d="M13.59,106.33h.27L15.6,111l0,0v0l1.74-4.71h.28v5.75h-.52v-3.94l0,.24-1.33,3.7h-.27l-1.35-3.7,0-.24v3.94h-.52Z"/><path d="M18.44,109.06a1.07,1.07,0,0,1,.09-.43,1.22,1.22,0,0,1,.26-.38,1.16,1.16,0,0,1,.39-.26,1.23,1.23,0,0,1,.46-.1h.29a1.28,1.28,0,0,1,.47.1,1.4,1.4,0,0,1,.39.26,1.16,1.16,0,0,1,.26.39,1.22,1.22,0,0,1,.09.46v3H20.7v-.49a1.17,1.17,0,0,1-.43.36,1.13,1.13,0,0,1-.54.13H19.6a1.22,1.22,0,0,1-.46-.09,1.19,1.19,0,0,1-.39-.27,1.16,1.16,0,0,1-.26-.39,1.18,1.18,0,0,1-.09-.46v0a1.22,1.22,0,0,1,.09-.46,1.2,1.2,0,0,1,.65-.65,1.22,1.22,0,0,1,.46-.09h1v-.56a.63.63,0,0,0-.06-.27.76.76,0,0,0-.15-.23.57.57,0,0,0-.23-.15.67.67,0,0,0-.28-.06h-.29a.66.66,0,0,0-.27.06.51.51,0,0,0-.23.15.86.86,0,0,0-.15.22.66.66,0,0,0-.06.27Zm2.21,1h-1a.66.66,0,0,0-.27.06.51.51,0,0,0-.23.15.63.63,0,0,0-.16.23.87.87,0,0,0-.05.28v.17a.67.67,0,0,0,.06.28.66.66,0,0,0,.15.22.63.63,0,0,0,.23.16.86.86,0,0,0,.27,0h.33a.87.87,0,0,0,.28,0,.73.73,0,0,0,.23-.16.86.86,0,0,0,.15-.22.67.67,0,0,0,.06-.28Z"/><path d="M23.33,108.44a.71.71,0,0,0-.28.06.86.86,0,0,0-.22.15.73.73,0,0,0-.16.23.87.87,0,0,0-.05.28v2.92h-.49v-4.19h.43v.5A1.26,1.26,0,0,1,23,108a1.15,1.15,0,0,1,.55-.14h.28v.55Z"/><path d="M24.65,106.33h.49v2.86l.39.48L26.91,108h.64l-1.71,2,1.71,2h-.64l-1.77-2.18v2.18h-.49Z"/><path d="M31,110.87a1.18,1.18,0,0,1-.09.46,1.16,1.16,0,0,1-.26.39,1.44,1.44,0,0,1-.39.27,1.27,1.27,0,0,1-.47.09h-.32A1.27,1.27,0,0,1,29,112a1.19,1.19,0,0,1-.39-.27,1.16,1.16,0,0,1-.26-.39,1.18,1.18,0,0,1-.09-.46V109.1a1.22,1.22,0,0,1,.09-.46A1.2,1.2,0,0,1,29,108a1.28,1.28,0,0,1,.47-.1h.32a1.28,1.28,0,0,1,.47.1,1.4,1.4,0,0,1,.39.26,1.16,1.16,0,0,1,.26.39,1.22,1.22,0,0,1,.09.46v1H28.7v.83a.67.67,0,0,0,.06.28.86.86,0,0,0,.15.22.63.63,0,0,0,.23.16.87.87,0,0,0,.28,0h.32a.87.87,0,0,0,.28,0,.73.73,0,0,0,.23-.16.86.86,0,0,0,.15-.22.67.67,0,0,0,.06-.28v-.19H31Zm-.49-1.8a.63.63,0,0,0-.06-.27.76.76,0,0,0-.15-.23.57.57,0,0,0-.23-.15.67.67,0,0,0-.28-.06h-.32a.67.67,0,0,0-.28.06.51.51,0,0,0-.23.15.76.76,0,0,0-.15.23.63.63,0,0,0-.06.27v.61h1.76Z"/><path d="M33.43,112.08A1.06,1.06,0,0,1,33,112a.89.89,0,0,1-.34-.23.92.92,0,0,1-.24-.35,1,1,0,0,1-.09-.41v-2.64h-.73v-.47h.73V107h.5v.9h1v.47h-1V111a.49.49,0,0,0,.08.29.63.63,0,0,0,.21.22.61.61,0,0,0,.3.08h.45v.47Z"/><path d="M34.91,107v-.66h.57V107Zm0,5.09v-4.19h.49v4.19Z"/><path d="M38.84,112.08v-3a.63.63,0,0,0-.06-.27.67.67,0,0,0-.38-.38.63.63,0,0,0-.27-.06H37.8a.67.67,0,0,0-.28.06.57.57,0,0,0-.23.15.76.76,0,0,0-.15.23.63.63,0,0,0-.06.27v3h-.49V108H37l.06.41a1.29,1.29,0,0,1,.44-.36,1.14,1.14,0,0,1,.54-.14h.13a1.23,1.23,0,0,1,.46.1,1.2,1.2,0,0,1,.65.65,1.22,1.22,0,0,1,.09.46v3Z"/><path d="M43.1,112.59a1.14,1.14,0,0,1-.09.46,1,1,0,0,1-.26.36,1.54,1.54,0,0,1-.39.23,1.5,1.5,0,0,1-.47.08h-.2a1.39,1.39,0,0,1-.46-.08,1.26,1.26,0,0,1-.39-.23,1.07,1.07,0,0,1-.27-.36,1.14,1.14,0,0,1-.09-.46h0a1,1,0,0,1,.33-.79,1,1,0,0,1-.31-.32.92.92,0,0,1-.11-.43.87.87,0,0,1,.09-.4.86.86,0,0,1,.25-.31,1.12,1.12,0,0,1-.3-.41,1.3,1.3,0,0,1-.11-.51v-.31a1.22,1.22,0,0,1,.09-.46,1.2,1.2,0,0,1,.65-.65,1.24,1.24,0,0,1,.47-.1h.2a1.21,1.21,0,0,1,.55.14,1.36,1.36,0,0,1,.43.36l0-.5h.45v1.52a1.22,1.22,0,0,1-.09.46,1.16,1.16,0,0,1-.26.39,1.4,1.4,0,0,1-.39.26,1.27,1.27,0,0,1-.47.09h-.71a.41.41,0,0,0-.29.13.38.38,0,0,0-.09.13.35.35,0,0,0,0,.17.39.39,0,0,0,.13.29.37.37,0,0,0,.29.12h.67a1.5,1.5,0,0,1,.47.08,1.9,1.9,0,0,1,.39.23,1,1,0,0,1,.26.36,1.18,1.18,0,0,1,.09.46Zm-.45-3.52a.63.63,0,0,0-.06-.27.51.51,0,0,0-.15-.23.63.63,0,0,0-.23-.16.87.87,0,0,0-.28,0h-.4a.67.67,0,0,0-.28.06.51.51,0,0,0-.23.15.76.76,0,0,0-.15.23.63.63,0,0,0-.06.27v.37a.63.63,0,0,0,.06.27.76.76,0,0,0,.15.23.51.51,0,0,0,.23.15.67.67,0,0,0,.28.06h.4a.87.87,0,0,0,.28-.05.63.63,0,0,0,.23-.16.51.51,0,0,0,.15-.23.63.63,0,0,0,.06-.27Zm0,3.48a.57.57,0,0,0-.21-.46,1.16,1.16,0,0,0-.22-.13.86.86,0,0,0-.28,0h-.25a.82.82,0,0,0-.28,0,1,1,0,0,0-.23.13.57.57,0,0,0-.21.46v.07a.57.57,0,0,0,.21.46.73.73,0,0,0,.23.13.82.82,0,0,0,.28,0h.25a.86.86,0,0,0,.28,0,.8.8,0,0,0,.22-.13.57.57,0,0,0,.21-.46Z"/><path d="M47.2,106.33h.28l1.69,5.75h-.54l-.38-1.34H46.43l-.37,1.34h-.54Zm.92,3.92-.76-2.65h0l-.76,2.65Z"/><path d="M52.52,112.59a1.14,1.14,0,0,1-.09.46,1,1,0,0,1-.26.36,1.26,1.26,0,0,1-.39.23,1.5,1.5,0,0,1-.47.08h-.2a1.44,1.44,0,0,1-.46-.08,1.26,1.26,0,0,1-.39-.23.93.93,0,0,1-.26-.36,1,1,0,0,1-.1-.46h0a1,1,0,0,1,.33-.79,1,1,0,0,1-.31-.32.92.92,0,0,1-.11-.43.86.86,0,0,1,.35-.71,1.14,1.14,0,0,1-.31-.41,1.3,1.3,0,0,1-.11-.51v-.31a1.22,1.22,0,0,1,.09-.46,1.16,1.16,0,0,1,.26-.39,1.26,1.26,0,0,1,.86-.36h.2a1.21,1.21,0,0,1,.55.14,1.36,1.36,0,0,1,.43.36v-.5h.44v1.52a1.22,1.22,0,0,1-.09.46,1.2,1.2,0,0,1-.65.65,1.27,1.27,0,0,1-.47.09h-.71a.41.41,0,0,0-.29.13.38.38,0,0,0-.09.13.35.35,0,0,0,0,.17.39.39,0,0,0,.13.29.37.37,0,0,0,.29.12h.67a1.28,1.28,0,0,1,.86.31,1,1,0,0,1,.26.36,1.18,1.18,0,0,1,.09.46Zm-.45-3.52a.81.81,0,0,0,0-.27.79.79,0,0,0-.39-.39.87.87,0,0,0-.28,0H51a.67.67,0,0,0-.28.06.57.57,0,0,0-.23.15.76.76,0,0,0-.15.23.63.63,0,0,0-.06.27v.37a.63.63,0,0,0,.06.27.76.76,0,0,0,.15.23.57.57,0,0,0,.23.15.67.67,0,0,0,.28.06h.4a.87.87,0,0,0,.28-.05.79.79,0,0,0,.39-.39.81.81,0,0,0,0-.27Zm0,3.48a.57.57,0,0,0-.21-.46,1.16,1.16,0,0,0-.22-.13.86.86,0,0,0-.28,0h-.25a.82.82,0,0,0-.28,0,1.26,1.26,0,0,0-.23.13.57.57,0,0,0-.21.46v.07a.57.57,0,0,0,.21.46.86.86,0,0,0,.23.13.82.82,0,0,0,.28,0h.25a.86.86,0,0,0,.28,0,.8.8,0,0,0,.22-.13.57.57,0,0,0,.21-.46Z"/><path d="M56.21,110.87a1.18,1.18,0,0,1-.09.46,1.33,1.33,0,0,1-.26.39,1.34,1.34,0,0,1-.4.27,1.18,1.18,0,0,1-.46.09h-.33a1.22,1.22,0,0,1-.46-.09,1.19,1.19,0,0,1-.39-.27,1.16,1.16,0,0,1-.26-.39,1.18,1.18,0,0,1-.09-.46V109.1a1.22,1.22,0,0,1,.09-.46,1.2,1.2,0,0,1,.65-.65,1.23,1.23,0,0,1,.46-.1H55a1.19,1.19,0,0,1,.46.1,1.31,1.31,0,0,1,.4.26,1.33,1.33,0,0,1,.26.39,1.22,1.22,0,0,1,.09.46v1H54v.83a.67.67,0,0,0,.06.28.54.54,0,0,0,.15.22.63.63,0,0,0,.23.16.81.81,0,0,0,.27,0H55a.87.87,0,0,0,.28,0,.73.73,0,0,0,.23-.16.86.86,0,0,0,.15-.22.66.66,0,0,0,.05-.28v-.19h.5Zm-.5-1.8a.62.62,0,0,0-.05-.27.76.76,0,0,0-.15-.23.57.57,0,0,0-.23-.15.67.67,0,0,0-.28-.06h-.33a.63.63,0,0,0-.27.06.67.67,0,0,0-.38.38.63.63,0,0,0-.06.27v.61h1.75Z"/><path d="M59.44,112.08v-3a.81.81,0,0,0,0-.27.63.63,0,0,0-.16-.23.51.51,0,0,0-.23-.15.63.63,0,0,0-.27-.06H58.4a.67.67,0,0,0-.28.06.54.54,0,0,0-.22.15.63.63,0,0,0-.16.23.62.62,0,0,0-.05.27v3h-.5V108h.37l.07.41a1.26,1.26,0,0,1,.43-.36,1.14,1.14,0,0,1,.54-.14h.13a1.23,1.23,0,0,1,.46.1,1.2,1.2,0,0,1,.65.65,1.22,1.22,0,0,1,.09.46v3Z"/><path d="M63.17,109.07a.63.63,0,0,0-.06-.27.76.76,0,0,0-.15-.23.51.51,0,0,0-.23-.15.67.67,0,0,0-.28-.06h-.32a.67.67,0,0,0-.28.06.57.57,0,0,0-.23.15.76.76,0,0,0-.15.23.63.63,0,0,0-.06.27v1.82a.63.63,0,0,0,.06.27.76.76,0,0,0,.15.23.57.57,0,0,0,.23.15.67.67,0,0,0,.28.06h.32a.67.67,0,0,0,.28-.06.51.51,0,0,0,.23-.15.76.76,0,0,0,.15-.23.63.63,0,0,0,.06-.27v-.19h.49v.16a1.22,1.22,0,0,1-.09.46,1.2,1.2,0,0,1-.65.65,1.07,1.07,0,0,1-.47.1h-.32a1.1,1.1,0,0,1-.47-.1,1.4,1.4,0,0,1-.39-.26,1.16,1.16,0,0,1-.26-.39,1.22,1.22,0,0,1-.09-.46V109.1a1.22,1.22,0,0,1,.09-.46,1.16,1.16,0,0,1,.26-.39,1.4,1.4,0,0,1,.39-.26,1.28,1.28,0,0,1,.47-.1h.32a1.24,1.24,0,0,1,.47.1,1.2,1.2,0,0,1,.65.65,1.22,1.22,0,0,1,.09.46v.07h-.49Z"/><path d="M65.55,113.72h-.47l.72-2-1.41-3.83h.5L66,111.08v.14l0-.14,1.07-3.17h.49Z"/></g></g></svg>