<svg xmlns="http://www.w3.org/2000/svg" viewBox="0 0 10.2 13.5"><defs><style>.cls-1{fill:#6eca97;}</style></defs><title>icon-phone@300x</title><g id="Layer_2" data-name="Layer 2"><g id="Services"><path class="cls-1" d="M6.49,11.25a.79.79,0,1,0,0,1.57.79.79,0,1,0,0-1.57Zm0,1.12A.34.34,0,1,1,6.83,12,.34.34,0,0,1,6.49,12.37Z"/><path class="cls-1" d="M7.5,8.32a.9.9,0,1,0-.9-.9A.9.9,0,0,0,7.5,8.32ZM7.5,7a.45.45,0,1,1-.45.45A.45.45,0,0,1,7.5,7Z"/><path class="cls-1" d="M2.1,2.7a.2.2,0,0,0,.16-.07l.45-.45a.21.21,0,0,0,0-.31.22.22,0,0,0-.32,0l-.45.44a.24.24,0,0,0,0,.32A.23.23,0,0,0,2.1,2.7Z"/><path class="cls-1" d="M10.2,6.69A.73.73,0,0,0,10,6.17L9.86,6a1,1,0,0,0-.67-1.77H9.07V4.16a1,1,0,0,0-1-1H7.94A.49.49,0,0,0,8,3a1,1,0,0,0-1-1H6.82s0-.08,0-.12a1,1,0,0,0-1.77-.67l-.18-.18L4,.22a.73.73,0,0,0-1,0L.22,3a.73.73,0,0,0,0,1l.84.85L2.17,6a1,1,0,0,0-.52.88,1,1,0,0,0,.46.84l.05.06,2.42,2.41v.4H4.13V13.5H10V10.57H9.53V9.89a1.89,1.89,0,0,0,.67-1.46,1.86,1.86,0,0,0-.35-1.09L10,7.21A.71.71,0,0,0,10.2,6.69Zm-.45-1.4a.55.55,0,0,1-.21.43l-.79-.79a.56.56,0,0,1,1,.36ZM8.63,4.16a.56.56,0,0,1-.22.44l-.78-.79a.55.55,0,0,1,.43-.21A.57.57,0,0,1,8.63,4.16ZM7.5,3a.55.55,0,0,1-.21.43L6.5,2.68a.58.58,0,0,1,.44-.21A.57.57,0,0,1,7.5,3ZM5.81,1.35a.57.57,0,0,1,.57.56.58.58,0,0,1-.21.44l-.79-.79A.55.55,0,0,1,5.81,1.35ZM.53,3.72a.31.31,0,0,1,0-.42L3.3.54,3.4.47h.05a.24.24,0,0,1,.12,0h.05l.1.07.52.52L1.06,4.24Zm4-2.34.27.27L6,2.77l.13.13,1,1L7.2,4l1,1,.13.13L9.45,6.27l.21.21a.29.29,0,0,1,0,.42L9.57,7h0L6.9,9.67a.31.31,0,0,1-.42,0L4.69,7.87h.22a1,1,0,1,0,0-2H2.67L1.38,4.56Zm-2,4.93H4.91a.56.56,0,1,1,0,1.12H2.67a.56.56,0,0,1-.13-1.11Zm2,6.73V11H6.47a1.26,1.26,0,0,1,1.26,1.25V13Zm4.95,0H8.18v-.77A1.7,1.7,0,0,0,7.62,11H9.53Zm0-5.37a1.46,1.46,0,0,1,.22.76A1.44,1.44,0,0,1,9.17,9.6l-.09.07v.9H5V10L5,9.89l0,0-2-2H4.05L6.17,10a.72.72,0,0,0,1,0Z"/></g></g></svg>