<svg xmlns="http://www.w3.org/2000/svg" viewBox="0 0 21.71 21.71"><defs><style>.cls-1{fill:#6eca97;}</style></defs><title>icon-rocket</title><g id="Layer_2" data-name="Layer 2"><g id="HomePage"><path class="cls-1" d="M10.86,5.07A2.17,2.17,0,1,0,13,7.24,2.17,2.17,0,0,0,10.86,5.07Zm0,3.61A1.45,1.45,0,1,1,12.3,7.24,1.44,1.44,0,0,1,10.86,8.68Z"/><path class="cls-1" d="M14.74,10.37a4,4,0,0,0-.38-.34h0a8.87,8.87,0,0,0-3.29-10,.4.4,0,0,0-.42,0,8.87,8.87,0,0,0-3.3,10h0a4.62,4.62,0,0,0-.71,6.49c.11.13.22.26.34.38a.36.36,0,0,0,.26.11l.11,0a.37.37,0,0,0,.25-.29l.27-1.91a.37.37,0,0,1,.36-.32h1.1l-.28,1.38a.37.37,0,0,0,.29.43h3a.37.37,0,0,0,.37-.36s0-.05,0-.07l-.28-1.38h1.11a.36.36,0,0,1,.35.32l.28,1.91a.36.36,0,0,0,.24.29l.11,0a.36.36,0,0,0,.26-.11A4.61,4.61,0,0,0,14.74,10.37ZM10.86.81A8.13,8.13,0,0,1,13,3.26H8.72A8,8,0,0,1,10.86.81ZM8.23,13.75a1.1,1.1,0,0,0-1.08.93L7,15.78a3.88,3.88,0,0,1-.64-2.48h0a3.91,3.91,0,0,1,1.23-2.53l1,3Zm1.62,1.81.22-1.09h1.58l.21,1.09Zm-.54-1.81L8.12,10,8,9.79A8.15,8.15,0,0,1,8.35,4h5a8.1,8.1,0,0,1,.31,5.81l-.08.25L12.4,13.75Zm5.41,2-.16-1.1a1.09,1.09,0,0,0-1.07-.93h-.33l1-3a3.91,3.91,0,0,1,.6,5Z"/><path class="cls-1" d="M9.41,17v1.18a2.49,2.49,0,0,0-2.49.61,2.86,2.86,0,0,0-3-.93,3.61,3.61,0,0,0-3.57-3H0v.72H.36a2.87,2.87,0,0,1,2.87,2.58,3,3,0,0,0-.89.81A3.63,3.63,0,0,0,0,18.09v.73a2.9,2.9,0,0,1,2.9,2.89h.72a3.61,3.61,0,0,0-.76-2.21,2.18,2.18,0,0,1,.9-.83h0a2.14,2.14,0,0,1,.93-.21,2.17,2.17,0,0,1,1.77.91,2.65,2.65,0,0,0-.32,1.26h.73a1.92,1.92,0,0,1,.3-1.05h0s0,0,0,0a1.82,1.82,0,0,1,2.22-.64v.95h.72V17Z"/><path class="cls-1" d="M21.35,15.56h.36v-.72h-.36a3.59,3.59,0,0,0-3.56,3,3,3,0,0,0-.78-.11,2.91,2.91,0,0,0-2.22,1,2.51,2.51,0,0,0-2.49-.6V17h-.72v2.89h.72v-.95a1.82,1.82,0,0,1,2.22.64l0,0h0a2,2,0,0,1,.3,1.05h.72a2.65,2.65,0,0,0-.32-1.26A2.18,2.18,0,0,1,17,18.46a2.14,2.14,0,0,1,.93.21h0a2.25,2.25,0,0,1,.9.83,3.56,3.56,0,0,0-.77,2.21h.73a2.89,2.89,0,0,1,2.89-2.89v-.73a3.65,3.65,0,0,0-2.34.86,2.88,2.88,0,0,0-.89-.81A2.87,2.87,0,0,1,21.35,15.56Z"/><rect class="cls-1" x="9.05" y="10.49" width="0.72" height="0.72"/><rect class="cls-1" x="10.49" y="10.49" width="0.72" height="0.72"/><rect class="cls-1" x="11.94" y="10.49" width="0.72" height="0.72"/><rect class="cls-1" x="3.98" y="19.18" width="0.72" height="0.72"/><rect class="cls-1" y="13.39" width="0.72" height="0.72"/><rect class="cls-1" x="20.27" y="16.64" width="0.72" height="0.72"/><rect class="cls-1" x="17.37" y="15.2" width="0.72" height="0.72"/><rect class="cls-1" x="13.39" y="20.99" width="0.73" height="0.72"/><rect class="cls-1" x="20.99" y="12.66" width="0.72" height="0.73"/></g></g></svg>