<svg xmlns="http://www.w3.org/2000/svg" viewBox="0 0 25.18 22.16"><defs><style>.cls-1{fill:#6eca97;}</style></defs><title>icon-lightning</title><g id="Layer_2" data-name="Layer 2"><g id="HomePage"><path class="cls-1" d="M9.88,10,8.76,12.28h2.63L9.2,16.65H11l5.53-7.34H13.7l1.94-3.9H12.16L10.25,9.27l.66.33,1.71-3.45h1.83l-1.94,3.9h2.58l-4.42,5.86h-.28l2.19-4.37H9.94l.6-1.2Z"/><path class="cls-1" d="M23.66,10.64a11,11,0,0,0-3.12-7.27L20,3.88A10.31,10.31,0,0,1,22.93,11v.37h.83l-2.06,2.93-2.06-2.93h.83V11A7.92,7.92,0,0,0,9.83,3.68l-1-2.27a10.37,10.37,0,0,1,10.62,2l.5-.55A11.14,11.14,0,0,0,8.24.87L7.91,1,9.44,4.63l.33-.14a7.19,7.19,0,0,1,10,6.15h-1.5l3.48,4.95,3.47-4.95Z"/><path class="cls-1" d="M15.41,17.67a7.18,7.18,0,0,1-9.95-6.15H7L3.48,6.58,0,11.52H1.52a11.11,11.11,0,0,0,15.42,9.77l.34-.14-1.53-3.62Zm-2.79,3.75A10.35,10.35,0,0,1,2.25,11.15v-.36H1.42L3.48,7.86l2.05,2.93H4.7v.37a7.93,7.93,0,0,0,10.65,7.33l1,2.26a10.3,10.3,0,0,1-3.69.67Z"/><path class="cls-1" d="M17.27,3.55c-.19-.12-.4-.24-.61-.35L17,2.55a7.19,7.19,0,0,1,.67.37Zm-1.92-.88c-.22-.07-.45-.14-.68-.19l.17-.72c.25.06.5.13.74.21Zm-2.08-.42c-.24,0-.47,0-.71,0V1.47c.26,0,.51,0,.77.05Z"/><path class="cls-1" d="M13.92,19.6h.74v.73h-.74Z"/><path class="cls-1" d="M3.07,9.73h.74v.74H3.07Z"/><path class="cls-1" d="M21.33,11.59h.74v.74h-.74Z"/></g></g></svg>