<svg xmlns="http://www.w3.org/2000/svg" viewBox="0 0 14.54 14.57"><defs><style>.cls-1{fill:#fff;}</style></defs><title>logo-icon</title><g id="Layer_2" data-name="Layer 2"><g id="HomePage"><path class="cls-1" d="M13.06,10.25a.25.25,0,0,0,.18.31h0c.1,0,.22-.08.22-.18l1-4A.24.24,0,0,0,14,6.24Z"/><path class="cls-1" d="M8.15,1.06a.25.25,0,0,0-.1.32.23.23,0,0,0,.22.15.15.15,0,0,0,.13-.05l2-1a.27.27,0,0,0,.1-.33.26.26,0,0,0-.32-.1Z"/><path class="cls-1" d="M3.43,10.48a.23.23,0,0,0,0-.35.24.24,0,0,0-.35,0l-1,1a.24.24,0,0,0,0,.35.29.29,0,0,0,.18.08.27.27,0,0,0,.17-.08Z"/><path class="cls-1" d="M3.43,12.13a.24.24,0,0,0-.35,0l-1,1a.24.24,0,0,0,0,.35.27.27,0,0,0,.18.07.25.25,0,0,0,.17-.07l1-1A.24.24,0,0,0,3.43,12.13Z"/><path class="cls-1" d="M.08,11.13a.24.24,0,0,0,0,.35.27.27,0,0,0,.17.08.29.29,0,0,0,.18-.08l2-2a.25.25,0,1,0-.35-.35Z"/><path class="cls-1" d="M14.52.45h0c.05-.2,0-.36-.07-.42s-.19,0-.32.05l-14,7c-.1,0-.15.1-.15.2a.31.31,0,0,0,.15.23L4.06,9.45l1,4.89a.08.08,0,0,0,0,.07,0,0,0,0,1,0,0l0,.05s0,0,0,0,0,0,0,0h.17s0,0,0,0h0s0,0,0,0l1.83-2.76,2.78,2.78a.23.23,0,0,0,.18.08h.07a.32.32,0,0,0,.18-.18l4-13.91h0ZM.8,7.3l11.93-6L4.21,9Zm4.49,5.86L4.54,9.38l7.64-6.87L6,10.15v0s0,.05,0,.07ZM5.84,13l.55-2.18.53.55Zm4.31.85L6.62,10.28l7.09-8.87Z"/></g></g></svg>