<svg xmlns="http://www.w3.org/2000/svg" viewBox="0 0 191.16 191.14"><defs><style>.cls-1{fill:#fff;}.cls-2,.cls-3{fill:#2e1a46;}.cls-2{stroke:#2e1a46;stroke-miterlimit:10;stroke-width:0.59px;}.cls-4{fill:#6cca98;}</style></defs><title>logo</title><g id="Layer_2" data-name="Layer 2"><g id="Layer_1-2" data-name="Layer 1"><path class="cls-1" d="M168.51,36.62A93.77,93.77,0,0,1,40.56,171.51,93.67,93.67,0,0,1,24.06,34.92,93.67,93.67,0,0,1,123.77,6.08a93.55,93.55,0,0,1,14.9,6.17c1,.52,1.91-1,.89-1.54a95.58,95.58,0,0,0-136,110.56A95.58,95.58,0,1,0,178.33,47.76a96.88,96.88,0,0,0-8.56-12.4c-.72-.89-2,.37-1.26,1.26Z"/><circle class="cls-1" cx="95.58" cy="95.56" r="87.97" transform="translate(-19.3 166.77) rotate(-76.79)"/><path class="cls-2" d="M54.55,126.66h5.6v.85H55.44v3.7h2.91l-.35.86H55.44v4.54h-.89Z"/><path class="cls-2" d="M61.87,136.61v-10h.86v10Z"/><path class="cls-2" d="M68.7,136.61v-.86a2,2,0,0,1-.74.63,2.08,2.08,0,0,1-1,.23H66.8a2,2,0,0,1-.8-.16,2.19,2.19,0,0,1-.67-.45,1.84,1.84,0,0,1-.45-.68,2,2,0,0,1-.16-.8v-5.15h.85v5.2a1.12,1.12,0,0,0,.1.48,1.16,1.16,0,0,0,.26.39,1.13,1.13,0,0,0,.4.27,1.28,1.28,0,0,0,.47.1h.57a1.29,1.29,0,0,0,.48-.1,1.13,1.13,0,0,0,.4-.27,1.16,1.16,0,0,0,.26-.39,1.12,1.12,0,0,0,.1-.48v-5.2h.85v7.24Z"/><path class="cls-2" d="M74.85,136.61l-1.52-2.73-1.52,2.73h-.92l2-3.55-2.13-3.69h.92l1.66,2.86,1.6-2.84h.92l-2.07,3.67,2,3.55Z"/><path class="cls-2" d="M82.53,130.35a2.36,2.36,0,0,1-.19.94,2.3,2.3,0,0,1-.53.78,2.39,2.39,0,0,1-.79.53,2.32,2.32,0,0,1-.94.19H77.82v3.82h-.89v-10h3.15a2.32,2.32,0,0,1,.94.19,2.38,2.38,0,0,1,1.32,1.32,2.32,2.32,0,0,1,.19.94Zm-.9-1.24a1.63,1.63,0,0,0-.12-.62,1.57,1.57,0,0,0-.34-.51,1.7,1.7,0,0,0-.52-.35,1.58,1.58,0,0,0-.61-.12H77.82v4.42H80a1.58,1.58,0,0,0,.61-.12,1.51,1.51,0,0,0,.52-.34,1.47,1.47,0,0,0,.34-.51,1.58,1.58,0,0,0,.12-.61Z"/><path class="cls-2" d="M86.06,130.32a1.28,1.28,0,0,0-.48.09,1.56,1.56,0,0,0-.4.27,1.33,1.33,0,0,0-.26.39,1.37,1.37,0,0,0-.1.48v5.06H84v-7.24h.75v.86a2.08,2.08,0,0,1,.75-.63,1.92,1.92,0,0,1,.94-.23h.5v.95Z"/><path class="cls-2" d="M92.8,134.66a2.15,2.15,0,0,1-.16.8,2.1,2.1,0,0,1-.46.68,2.19,2.19,0,0,1-.67.45,2.24,2.24,0,0,1-.8.16h-.57a2.15,2.15,0,0,1-.8-.16,2.12,2.12,0,0,1-.68-.45,2.24,2.24,0,0,1-.45-.68,2,2,0,0,1-.16-.8v-3.21a2,2,0,0,1,.16-.8,2.19,2.19,0,0,1,.45-.67,1.84,1.84,0,0,1,.68-.45,2,2,0,0,1,.8-.16h.57a2,2,0,0,1,.8.16,1.89,1.89,0,0,1,.67.45,2.06,2.06,0,0,1,.46.67,2.24,2.24,0,0,1,.16.8Zm-.86-3.25a1.2,1.2,0,0,0-.36-.88,1.16,1.16,0,0,0-.39-.26,1.18,1.18,0,0,0-.48-.1h-.57a1.12,1.12,0,0,0-.48.1,1.31,1.31,0,0,0-.4.26,1.26,1.26,0,0,0-.26.4,1.29,1.29,0,0,0-.1.48v3.3a1.26,1.26,0,0,0,.36.87,1.56,1.56,0,0,0,.4.27,1.28,1.28,0,0,0,.48.09h.57a1.26,1.26,0,0,0,1.14-.75,1.32,1.32,0,0,0,.09-.48Z"/><path class="cls-2" d="M103.11,134.17a2.5,2.5,0,0,1-.19.94,2.47,2.47,0,0,1-2.26,1.5H97.51v-10h3.15a2.36,2.36,0,0,1,.94.19,2.47,2.47,0,0,1,.79.52,2.54,2.54,0,0,1,.53.8,2.5,2.5,0,0,1,.19.94Zm-.9-5.06a1.63,1.63,0,0,0-.12-.62,1.6,1.6,0,0,0-.35-.51,1.54,1.54,0,0,0-.51-.35,1.59,1.59,0,0,0-.62-.12H98.4v8.25h2.21a1.59,1.59,0,0,0,.62-.12,1.41,1.41,0,0,0,.51-.35,1.46,1.46,0,0,0,.35-.5,1.63,1.63,0,0,0,.12-.62Z"/><path class="cls-2" d="M104.48,127.8v-1.14h1v1.14Zm.07,8.81v-7.24h.85v7.24Z"/><path class="cls-2" d="M112.21,137.51a1.85,1.85,0,0,1-.16.78,1.77,1.77,0,0,1-.45.62,2.11,2.11,0,0,1-.68.4,2.18,2.18,0,0,1-.8.14h-.35a2.14,2.14,0,0,1-.8-.14,2,2,0,0,1-.68-.4,1.65,1.65,0,0,1-.45-.62,1.85,1.85,0,0,1-.16-.78v0a1.83,1.83,0,0,1,.57-1.37,1.48,1.48,0,0,1-.73-1.3,1.46,1.46,0,0,1,.16-.69,1.33,1.33,0,0,1,.43-.53,2.36,2.36,0,0,1-.53-.72,2.25,2.25,0,0,1-.19-.88v-.54a2.24,2.24,0,0,1,.16-.8A2.19,2.19,0,0,1,108,130a1.92,1.92,0,0,1,.68-.45,2,2,0,0,1,.8-.16h.36a2,2,0,0,1,.94.23,2.08,2.08,0,0,1,.75.63l0-.86h.77V132a2.19,2.19,0,0,1-.16.8,2,2,0,0,1-1.13,1.13,2.19,2.19,0,0,1-.8.16H109a.69.69,0,0,0-.5.21.67.67,0,0,0-.16.24.64.64,0,0,0-.06.28.75.75,0,0,0,.72.72h1.17a2.4,2.4,0,0,1,.8.14,2.11,2.11,0,0,1,.68.4,1.87,1.87,0,0,1,.45.62,1.89,1.89,0,0,1,.16.79Zm-.78-6.1a1.31,1.31,0,0,0-.36-.88,1.2,1.2,0,0,0-.4-.26,1.12,1.12,0,0,0-.48-.1h-.71a1.18,1.18,0,0,0-.48.1,1.16,1.16,0,0,0-.39.26,1.2,1.2,0,0,0-.36.88V132a1.15,1.15,0,0,0,.36.87,1.16,1.16,0,0,0,.39.26,1.18,1.18,0,0,0,.48.1h.71a1.28,1.28,0,0,0,.48-.09,1.09,1.09,0,0,0,.4-.27,1.16,1.16,0,0,0,.26-.39,1.18,1.18,0,0,0,.1-.48Zm0,6a1,1,0,0,0-.36-.81,1.48,1.48,0,0,0-.88-.29h-.44a1.27,1.27,0,0,0-.48.08,1.22,1.22,0,0,0-.39.21,1,1,0,0,0-.36.81v.11a1,1,0,0,0,.36.8,1.47,1.47,0,0,0,.39.22,1.51,1.51,0,0,0,.48.07h.44a1.51,1.51,0,0,0,.48-.07,1.53,1.53,0,0,0,.4-.22,1,1,0,0,0,.36-.8Z"/><path class="cls-2" d="M114.06,127.8v-1.14h1v1.14Zm.07,8.81v-7.24H115v7.24Z"/><path class="cls-2" d="M119.56,136.61a2,2,0,0,1-.72-.14,1.94,1.94,0,0,1-.6-.41,2,2,0,0,1-.42-.61,1.91,1.91,0,0,1-.14-.71v-4.56h-1.27v-.81h1.27V127.8h.86v1.57h1.8v.81h-1.8v4.6a1,1,0,0,0,.13.51,1.09,1.09,0,0,0,.37.37,1,1,0,0,0,.52.14h.78v.81Z"/><path class="cls-2" d="M122,131.39a2,2,0,0,1,.16-.76,2.15,2.15,0,0,1,1.12-1.1,2.05,2.05,0,0,1,.81-.16h.49a2.05,2.05,0,0,1,.81.16,2.09,2.09,0,0,1,1.12,1.12,2,2,0,0,1,.16.8v5.16h-.75v-.85a2,2,0,0,1-.74.62,2.11,2.11,0,0,1-1,.23H124a2,2,0,0,1-.8-.16,2.12,2.12,0,0,1-.68-.45,1.84,1.84,0,0,1-.45-.68,2,2,0,0,1-.16-.8v-.07a2,2,0,0,1,.16-.8,1.92,1.92,0,0,1,.45-.68,2.12,2.12,0,0,1,.68-.45,2.15,2.15,0,0,1,.8-.16h1.8v-1a1.25,1.25,0,0,0-1.24-1.24h-.49a1.12,1.12,0,0,0-.48.1,1.2,1.2,0,0,0-.4.26,1.11,1.11,0,0,0-.26.4,1.4,1.4,0,0,0-.1.46ZM125.8,133H124a1.31,1.31,0,0,0-.88.36,1.56,1.56,0,0,0-.27.4,1.36,1.36,0,0,0-.09.48v.3a1.12,1.12,0,0,0,.1.48,1.16,1.16,0,0,0,.26.39,1.13,1.13,0,0,0,.4.27,1.29,1.29,0,0,0,.48.1h.56a1.29,1.29,0,0,0,.48-.1,1.13,1.13,0,0,0,.4-.27,1.16,1.16,0,0,0,.26-.39,1.12,1.12,0,0,0,.1-.48Z"/><path class="cls-2" d="M128.64,136.61v-10h.86v10Z"/><path class="cls-3" d="M66.33,140.8h.24l1.62,4.38,0,0v0l1.61-4.38h.26v5.34h-.48v-3.66l0,.23-1.23,3.43h-.26l-1.25-3.43,0-.23v3.66h-.47Z"/><path class="cls-3" d="M70.82,143.34a1.1,1.1,0,0,1,.33-.76,1.26,1.26,0,0,1,.36-.24,1.07,1.07,0,0,1,.43-.09h.27a1.07,1.07,0,0,1,.43.09,1.13,1.13,0,0,1,.36.24,1.41,1.41,0,0,1,.24.36,1.07,1.07,0,0,1,.09.43v2.77h-.41v-.46a1.08,1.08,0,0,1-.4.33,1.06,1.06,0,0,1-.5.13H71.9a1,1,0,0,1-.42-.09,1.31,1.31,0,0,1-.37-.24,1.41,1.41,0,0,1-.24-.36,1.09,1.09,0,0,1-.08-.43v0a1.06,1.06,0,0,1,.08-.43,1.13,1.13,0,0,1,.24-.36,1,1,0,0,1,.37-.24,1,1,0,0,1,.42-.09h1v-.51a.75.75,0,0,0-.05-.26.77.77,0,0,0-.14-.21.6.6,0,0,0-.21-.14.6.6,0,0,0-.26-.05h-.27a.6.6,0,0,0-.26.05.6.6,0,0,0-.21.14.77.77,0,0,0-.14.21.7.7,0,0,0,0,.25Zm2.05.88h-1a.74.74,0,0,0-.25.05.6.6,0,0,0-.21.14.57.57,0,0,0-.15.22.7.7,0,0,0-.05.25V145a.75.75,0,0,0,.05.26.8.8,0,0,0,.15.21.6.6,0,0,0,.21.14.56.56,0,0,0,.25,0h.31a.6.6,0,0,0,.26,0,.6.6,0,0,0,.21-.14.77.77,0,0,0,.14-.21.75.75,0,0,0,.05-.26Z"/><path class="cls-3" d="M75.36,142.76a.62.62,0,0,0-.26.06.6.6,0,0,0-.21.14.77.77,0,0,0-.14.21.74.74,0,0,0,0,.25v2.72h-.46v-3.89h.4v.47a1.09,1.09,0,0,1,.4-.34,1.14,1.14,0,0,1,.51-.13h.27v.51Z"/><path class="cls-3" d="M76.58,140.8H77v2.66l.36.44,1.28-1.57h.59l-1.59,1.9,1.59,1.91h-.59l-1.64-2v2h-.46Z"/><path class="cls-3" d="M82.43,145a1.11,1.11,0,0,1-.09.43,1.41,1.41,0,0,1-.24.36,1.26,1.26,0,0,1-.36.24,1.07,1.07,0,0,1-.43.09H81a1.07,1.07,0,0,1-.43-.09,1.26,1.26,0,0,1-.36-.24,1.41,1.41,0,0,1-.24-.36,1.11,1.11,0,0,1-.09-.43v-1.65a1.07,1.07,0,0,1,.09-.43,1.41,1.41,0,0,1,.24-.36,1.26,1.26,0,0,1,.36-.24,1.07,1.07,0,0,1,.43-.09h.31a1.07,1.07,0,0,1,.43.09,1.26,1.26,0,0,1,.36.24,1.41,1.41,0,0,1,.24.36,1.07,1.07,0,0,1,.09.43v.9H80.34V145a.75.75,0,0,0,0,.26.77.77,0,0,0,.14.21.64.64,0,0,0,.22.14.53.53,0,0,0,.25,0h.31a.53.53,0,0,0,.25,0,.55.55,0,0,0,.22-.14.77.77,0,0,0,.14-.21.75.75,0,0,0,0-.26v-.18h.46ZM82,143.35a.75.75,0,0,0,0-.26.77.77,0,0,0-.14-.21.55.55,0,0,0-.22-.14.53.53,0,0,0-.25-.05H81a.53.53,0,0,0-.25.05.64.64,0,0,0-.22.14.77.77,0,0,0-.14.21.75.75,0,0,0,0,.26v.56H82Z"/><path class="cls-3" d="M84.73,146.14a1,1,0,0,1-.71-.3.87.87,0,0,1-.22-.32,1.09,1.09,0,0,1-.08-.39v-2.44H83v-.44h.68v-.84h.46v.84h1v.44h-1v2.46a.55.55,0,0,0,.07.28.46.46,0,0,0,.2.19.54.54,0,0,0,.28.08h.41v.44Z"/><path class="cls-3" d="M86.1,141.41v-.61h.53v.61Zm0,4.73v-3.89h.45v3.89Z"/><path class="cls-3" d="M89.75,146.14v-2.79a.58.58,0,0,0-.06-.26.64.64,0,0,0-.35-.35.58.58,0,0,0-.26-.05h-.3a.58.58,0,0,0-.26.05.64.64,0,0,0-.35.35.58.58,0,0,0,0,.26v2.79h-.46v-3.81H88l.06.39a1.09,1.09,0,0,1,.4-.34,1.14,1.14,0,0,1,.51-.13h.11a1,1,0,0,1,.43.09,1.13,1.13,0,0,1,.36.24,1.23,1.23,0,0,1,.25.36,1.26,1.26,0,0,1,.08.43v2.77Z"/><path class="cls-3" d="M93.7,146.62a1,1,0,0,1-.09.42,1,1,0,0,1-.24.33,1.31,1.31,0,0,1-.36.21,1.26,1.26,0,0,1-.43.08h-.19a1.26,1.26,0,0,1-.43-.08,1.07,1.07,0,0,1-.36-.21.9.9,0,0,1-.25-.33,1.16,1.16,0,0,1-.08-.42v0a1,1,0,0,1,.3-.73.86.86,0,0,1-.39-.7.78.78,0,0,1,.09-.37.82.82,0,0,1,.23-.29,1.08,1.08,0,0,1-.28-.38,1.1,1.1,0,0,1-.1-.47v-.29a1.26,1.26,0,0,1,.08-.43,1.41,1.41,0,0,1,.24-.36,1.31,1.31,0,0,1,.37-.24,1,1,0,0,1,.42-.09h.19a1.14,1.14,0,0,1,.51.13,1,1,0,0,1,.4.34v-.47h.41v1.41a1.26,1.26,0,0,1-.08.43,1,1,0,0,1-.25.36,1,1,0,0,1-.36.24,1,1,0,0,1-.43.09H92a.4.4,0,0,0-.27.11.35.35,0,0,0-.08.13.4.4,0,0,0,0,.15.33.33,0,0,0,.11.27.34.34,0,0,0,.27.12h.63a1.25,1.25,0,0,1,.43.07,1.31,1.31,0,0,1,.36.21,1.16,1.16,0,0,1,.24.34,1,1,0,0,1,.09.42Zm-.42-3.27a.75.75,0,0,0,0-.26.77.77,0,0,0-.14-.21.74.74,0,0,0-.22-.14.58.58,0,0,0-.26-.05h-.38a.56.56,0,0,0-.25.05.64.64,0,0,0-.35.35.58.58,0,0,0-.06.26v.34a.57.57,0,0,0,.06.25.64.64,0,0,0,.35.35.57.57,0,0,0,.25.06h.38a.75.75,0,0,0,.26,0,.78.78,0,0,0,.22-.15.77.77,0,0,0,.14-.21.74.74,0,0,0,0-.25Zm0,3.23a.51.51,0,0,0-.19-.43.72.72,0,0,0-.21-.12.75.75,0,0,0-.26,0h-.24a.69.69,0,0,0-.25,0,.72.72,0,0,0-.21.12.52.52,0,0,0-.2.43v0a.51.51,0,0,0,.2.43.45.45,0,0,0,.21.12.69.69,0,0,0,.25,0h.24a.75.75,0,0,0,.26,0,.45.45,0,0,0,.21-.12.5.5,0,0,0,.19-.43Z"/><path class="cls-3" d="M97.5,140.8h.25l1.57,5.34h-.49l-.35-1.25H96.79l-.35,1.25h-.5Zm.85,3.64-.7-2.46h0l-.7,2.46Z"/><path class="cls-3" d="M102.43,146.62a1.16,1.16,0,0,1-.08.42,1,1,0,0,1-.24.33,1.23,1.23,0,0,1-.37.21,1.2,1.2,0,0,1-.42.08h-.19a1.3,1.3,0,0,1-.8-.29,1,1,0,0,1-.24-.33,1.16,1.16,0,0,1-.08-.42v0a1,1,0,0,1,.3-.73.83.83,0,0,1-.29-.3.91.91,0,0,1-.1-.4.78.78,0,0,1,.09-.37.73.73,0,0,1,.23-.29,1,1,0,0,1-.28-.38,1.12,1.12,0,0,1-.11-.47v-.29a1.07,1.07,0,0,1,.09-.43,1.1,1.1,0,0,1,.6-.6,1.07,1.07,0,0,1,.43-.09h.19a1.14,1.14,0,0,1,.51.13,1.09,1.09,0,0,1,.4.34v-.47h.41v1.41a1.26,1.26,0,0,1-.08.43,1,1,0,0,1-.25.36,1,1,0,0,1-.36.24,1.07,1.07,0,0,1-.43.09h-.66a.4.4,0,0,0-.27.11.38.38,0,0,0-.09.13.39.39,0,0,0,0,.15.33.33,0,0,0,.11.27.34.34,0,0,0,.27.12h.63a1.2,1.2,0,0,1,.42.07,1.23,1.23,0,0,1,.37.21,1,1,0,0,1,.32.76Zm-.41-3.27a.75.75,0,0,0,0-.26.8.8,0,0,0-.15-.21.6.6,0,0,0-.21-.14.58.58,0,0,0-.26-.05H101a.53.53,0,0,0-.25.05.52.52,0,0,0-.21.14.8.8,0,0,0-.15.21.75.75,0,0,0,0,.26v.34a.74.74,0,0,0,0,.25.8.8,0,0,0,.15.21.52.52,0,0,0,.21.14.54.54,0,0,0,.25.06h.38a.75.75,0,0,0,.26,0,.62.62,0,0,0,.21-.15.8.8,0,0,0,.15-.21.74.74,0,0,0,0-.25Zm0,3.23a.54.54,0,0,0-.19-.43.72.72,0,0,0-.21-.12.75.75,0,0,0-.26,0h-.24a.66.66,0,0,0-.25,0,.53.53,0,0,0-.21.12.52.52,0,0,0-.2.43v0a.51.51,0,0,0,.2.43.37.37,0,0,0,.21.12.66.66,0,0,0,.25,0h.24a.75.75,0,0,0,.26,0,.45.45,0,0,0,.21-.12.53.53,0,0,0,.19-.43Z"/><path class="cls-3" d="M105.85,145a1.09,1.09,0,0,1-.08.43,1.41,1.41,0,0,1-.24.36,1.31,1.31,0,0,1-.37.24,1,1,0,0,1-.43.09h-.3a1.07,1.07,0,0,1-.43-.09,1.13,1.13,0,0,1-.36-.24,1,1,0,0,1-.24-.36,1.11,1.11,0,0,1-.09-.43v-1.65a1.07,1.07,0,0,1,.09-.43,1,1,0,0,1,.24-.36,1.13,1.13,0,0,1,.36-.24,1.07,1.07,0,0,1,.43-.09h.3a1,1,0,0,1,.43.09,1.31,1.31,0,0,1,.37.24,1.41,1.41,0,0,1,.24.36,1.06,1.06,0,0,1,.08.43v.9h-2.08V145a.75.75,0,0,0,0,.26.64.64,0,0,0,.35.35.6.6,0,0,0,.26,0h.3a.58.58,0,0,0,.26,0,.64.64,0,0,0,.35-.35.58.58,0,0,0,.06-.26v-.18h.45Zm-.45-1.67a.58.58,0,0,0-.06-.26.64.64,0,0,0-.35-.35.58.58,0,0,0-.26-.05h-.3a.6.6,0,0,0-.26.05.64.64,0,0,0-.35.35.75.75,0,0,0,0,.26v.56h1.63Z"/><path class="cls-3" d="M108.85,146.14v-2.79a.58.58,0,0,0,0-.26.64.64,0,0,0-.35-.35.58.58,0,0,0-.26-.05h-.3a.58.58,0,0,0-.26.05.64.64,0,0,0-.35.35.58.58,0,0,0,0,.26v2.79h-.46v-3.81h.34l.06.39a1,1,0,0,1,.4-.34,1.14,1.14,0,0,1,.51-.13h.11a1.07,1.07,0,0,1,.43.09,1.13,1.13,0,0,1,.36.24,1,1,0,0,1,.24.36,1.07,1.07,0,0,1,.09.43v2.77Z"/><path class="cls-3" d="M112.31,143.35a.75.75,0,0,0,0-.26.77.77,0,0,0-.14-.21.55.55,0,0,0-.22-.14.53.53,0,0,0-.25-.05h-.31a.53.53,0,0,0-.25.05.46.46,0,0,0-.21.14.8.8,0,0,0-.15.21.75.75,0,0,0,0,.26V145a.75.75,0,0,0,0,.26.8.8,0,0,0,.15.21.46.46,0,0,0,.21.14.7.7,0,0,0,.25.05h.31a.7.7,0,0,0,.25-.05.55.55,0,0,0,.22-.14.77.77,0,0,0,.14-.21.75.75,0,0,0,0-.26v-.18h.46V145a1,1,0,0,1-.09.43,1.31,1.31,0,0,1-.24.37,1.08,1.08,0,0,1-.79.32h-.31a1.26,1.26,0,0,1-.43-.08,1.41,1.41,0,0,1-.36-.24,1.31,1.31,0,0,1-.24-.37,1,1,0,0,1-.09-.43v-1.63a1.07,1.07,0,0,1,.09-.43,1.1,1.1,0,0,1,.6-.6,1.07,1.07,0,0,1,.43-.09h.31a1.07,1.07,0,0,1,.43.09,1.26,1.26,0,0,1,.36.24,1.41,1.41,0,0,1,.24.36,1.07,1.07,0,0,1,.09.43v.07h-.46Z"/><path class="cls-3" d="M114.52,147.66h-.44l.68-1.85-1.31-3.56h.45l1.07,3v.13l0-.13,1-2.94h.46Z"/><polygon class="cls-4" points="106.41 115.33 125.22 49.47 87.59 96.51 106.41 115.33"/><polygon class="cls-4" points="125.22 49.47 59.37 82.4 78.18 91.81 125.22 49.47"/><path class="cls-3" d="M119.46,91.57a1.11,1.11,0,0,0,.82,1.41h.24c.47,0,1.06-.35,1.06-.82l4.7-18.82a1.15,1.15,0,1,0-2.23-.59Z"/><path class="cls-3" d="M96.41,48.41a1.24,1.24,0,0,0-.47,1.53,1.14,1.14,0,0,0,1.06.71.65.65,0,0,0,.59-.24l9.4-4.7a1.13,1.13,0,1,0-1-2Z"/><path class="cls-3" d="M74.3,92.63A1.16,1.16,0,0,0,72.66,91L68,95.68a1.14,1.14,0,0,0,0,1.65,1.13,1.13,0,0,0,1.65,0Z"/><path class="cls-3" d="M74.3,100.39a1.13,1.13,0,0,0-1.64,0L68,105.09a1.14,1.14,0,0,0,0,1.65,1.15,1.15,0,0,0,1.65,0l4.7-4.7A1.13,1.13,0,0,0,74.3,100.39Z"/><path class="cls-3" d="M58.55,95.68a1.14,1.14,0,0,0,0,1.65,1.11,1.11,0,0,0,1.64,0l9.41-9.41a1.13,1.13,0,0,0,0-1.64,1.14,1.14,0,0,0-1.65,0Z"/><path class="cls-3" d="M126.31,45.57v0a1.84,1.84,0,0,0-.36-2c-.34-.24-.88-.13-1.47.25L58.9,76.64c-.47.23-.71.47-.71.94a1.37,1.37,0,0,0,.71,1.06l18.34,9.17,4.59,22.93a.42.42,0,0,0,.12.35.12.12,0,0,1,.12.12l.23.23a.12.12,0,0,0,.12.12.12.12,0,0,0,.12.12h.82c.12,0,.12-.12.23-.12h.12c.12,0,.12-.12.24-.23l8.58-12.94,13,13a1.07,1.07,0,0,0,.83.36h.35a1.4,1.4,0,0,0,.82-.83l18.69-65.26a.14.14,0,0,0,0-.06ZM62,77.69l56-28-40,36ZM83,105.21,79.48,87.45l35.86-32.22L86.53,91.1v.12c0,.11-.12.23-.12.35Zm2.58-.82,2.59-10.23,2.47,2.58Zm20.23,4L89.24,91.69l33.28-41.63Z"/><path class="cls-1" d="M166.16,33.79a.89.89,0,0,0,0-1.78.89.89,0,0,0,0,1.78Z"/></g></g></svg>