<svg xmlns="http://www.w3.org/2000/svg" viewBox="0 0 6.85 10.27"><title>unknown-icon@300x</title><g id="Layer_2" data-name="Layer 2"><g id="Online_Payment_Contact_Us" data-name="Online Payment&amp; Contact Us"><path d="M5,0H1.88A.68.68,0,0,0,1.2.68V2.94a.4.4,0,0,0-.15,0H1a.51.51,0,0,0-.51.45,5.4,5.4,0,0,1-.13.7,2.39,2.39,0,0,1-.15.37A1.75,1.75,0,0,0,0,5.14c0,.15,0,.3,0,.46s0,.28,0,.41,0,.23,0,.39c0,.34,0,.77,0,1a1.45,1.45,0,0,0,.31.85,2.94,2.94,0,0,1,.19.29.71.71,0,0,0,.1.14,1.24,1.24,0,0,1,.26.6v.51a.51.51,0,0,0,.51.51H3.42a.51.51,0,0,0,.52-.51V9.07A.16.16,0,0,1,4,8.92a2.65,2.65,0,0,0,.86-.7H5a.69.69,0,0,0,.66-.52h.2a.67.67,0,0,0,.62-.39.69.69,0,0,0-.11-.74.64.64,0,0,0,.33-.47.68.68,0,0,0-.16-.55.67.67,0,0,0,.31-.77.68.68,0,0,0-.66-.5H5.65V4l.6-.24a.69.69,0,0,0-.51-1.28l-.09,0V.68A.68.68,0,0,0,5,0ZM4.28.34V.51a.17.17,0,0,1-.17.17H2.74A.17.17,0,0,1,2.57.51V.34ZM3.86,8.62a.52.52,0,0,0-.26.45v.69a.18.18,0,0,1-.18.17h-2a.18.18,0,0,1-.17-.17V9.25a1.46,1.46,0,0,0-.32-.78L.8,8.33C.72,8.2.65,8.11.59,8a1,1,0,0,1-.24-.67c0-.18,0-.6,0-.93,0-.16,0-.3,0-.4s0-.29,0-.44a3.12,3.12,0,0,1,0-.43,1.59,1.59,0,0,1,.17-.59,3.25,3.25,0,0,0,.15-.4A4.87,4.87,0,0,0,.85,3.4.17.17,0,0,1,1,3.25H1a.43.43,0,0,1,.2.07l.05,0a.9.9,0,0,1,.25.75v0A2.67,2.67,0,0,1,1.12,5.5.16.16,0,0,0,1,5.69a.18.18,0,0,0,.17.13V7.53a.69.69,0,0,0,.68.69H4.43A2.91,2.91,0,0,1,3.86,8.62ZM5,7.87H1.88a.34.34,0,0,1-.34-.34v-2a3.74,3.74,0,0,0,.34-1.39h0a1.29,1.29,0,0,0-.34-1V.68A.34.34,0,0,1,1.88.34h.35V.51A.51.51,0,0,0,2.74,1H4.11A.51.51,0,0,0,4.62.51V.34H5a.34.34,0,0,1,.34.34V4.37A.69.69,0,0,0,5,4.9a.68.68,0,0,0,.23.58A.66.66,0,0,0,5,6a.68.68,0,0,0,.23.52A.65.65,0,0,0,5,7.08a.66.66,0,0,0,.33.52A.33.33,0,0,1,5,7.87ZM6,6.33H5.65a.25.25,0,0,1-.12,0,.34.34,0,0,1,.12-.66H6a.34.34,0,0,1,0,.68Zm-.16,1H5.65A.34.34,0,0,1,5.31,7a.35.35,0,0,1,.34-.35h.18A.35.35,0,0,1,6.17,7,.34.34,0,0,1,5.83,7.36ZM6.51,5a.35.35,0,0,1-.35.35H5.65A.35.35,0,0,1,5.31,5a.34.34,0,0,1,.34-.34h.51A.35.35,0,0,1,6.51,5Zm-.64-2.2a.35.35,0,0,1,.33.05.34.34,0,0,1,.13.32.35.35,0,0,1-.21.27l-.47.19V2.85Z"/><path d="M4.11,7.19H2.74a.17.17,0,1,0,0,.34H4.11a.17.17,0,0,0,0-.34Z"/><path d="M1.71,9.24a.18.18,0,0,0-.17.18.18.18,0,0,0,.17.17h.17a.17.17,0,0,0,.17-.17.17.17,0,0,0-.17-.18Z"/><path d="M2.57,9.59h.51a.17.17,0,0,0,.17-.17.17.17,0,0,0-.17-.18H2.57a.17.17,0,0,0-.17.18A.17.17,0,0,0,2.57,9.59Z"/><path d="M2.05,1.2a.17.17,0,0,0-.17.17v.17a.18.18,0,0,0,.17.17.18.18,0,0,0,.18-.17V1.37A.17.17,0,0,0,2.05,1.2Z"/><path d="M2.05,2.05a.18.18,0,0,0-.17.17v.86a.18.18,0,0,0,.17.17.18.18,0,0,0,.18-.17V2.22A.18.18,0,0,0,2.05,2.05Z"/></g></g></svg>